<svg xmlns="http://www.w3.org/2000/svg" xmlns:xlink="http://www.w3.org/1999/xlink" width="300" zoomAndPan="magnify" viewBox="0 0 224.87999 74.999997" height="100" preserveAspectRatio="xMidYMid meet" version="1.0"><defs><g/><clipPath id="a363978095"><path d="M 139 10 L 220 10 L 220 70 L 139 70 Z M 139 10 " clip-rule="nonzero"/></clipPath><clipPath id="4b56c8ace8"><path d="M 135.761719 18.933594 L 213.714844 0.0390625 L 227.308594 56.136719 L 149.359375 75.027344 Z M 135.761719 18.933594 " clip-rule="nonzero"/></clipPath><clipPath id="c17961d6a5"><path d="M 135.761719 18.933594 L 213.714844 0.0390625 L 227.308594 56.136719 L 149.359375 75.027344 Z M 135.761719 18.933594 " clip-rule="nonzero"/></clipPath><clipPath id="6f38df5783"><path d="M 4.5625 27.058594 L 23.300781 27.058594 L 23.300781 45.796875 L 4.5625 45.796875 Z M 4.5625 27.058594 " clip-rule="nonzero"/></clipPath></defs><g clip-path="url(#a363978095)"><g clip-path="url(#4b56c8ace8)"><g clip-path="url(#c17961d6a5)"><path fill="#1649ff" d="M 218.550781 26.496094 C 218.84375 27.605469 219.457031 28.265625 219.957031 28.636719 C 219.199219 29.664062 218.4375 30.683594 217.667969 31.703125 C 216.835938 31.074219 215.476562 29.742188 214.882812 27.492188 C 213.472656 29.378906 212.046875 31.25 210.605469 33.109375 C 208.957031 35.234375 207.289062 37.339844 205.59375 39.425781 C 203.894531 41.511719 202.175781 43.582031 200.417969 45.625 C 198.664062 47.667969 196.878906 49.6875 195.046875 51.671875 C 193.21875 53.65625 191.34375 55.609375 189.402344 57.507812 C 187.460938 59.402344 185.457031 61.25 183.332031 62.996094 C 181.199219 64.734375 178.96875 66.394531 176.429688 67.757812 C 175.152344 68.429688 173.792969 69.03125 172.257812 69.40625 C 171.488281 69.585938 170.671875 69.703125 169.804688 69.691406 C 169.371094 69.6875 168.925781 69.640625 168.480469 69.5625 C 168.035156 69.472656 167.585938 69.34375 167.152344 69.167969 C 166.722656 68.984375 166.304688 68.757812 165.917969 68.496094 C 165.570312 68.226562 165.214844 67.980469 164.90625 67.65625 C 164.578125 67.355469 164.304688 67 164.027344 66.648438 C 163.90625 66.464844 163.785156 66.277344 163.664062 66.089844 C 163.601562 65.996094 163.550781 65.902344 163.503906 65.800781 L 163.355469 65.507812 C 162.972656 64.722656 162.71875 63.894531 162.59375 63.09375 L 162.539062 62.792969 L 162.503906 62.496094 C 162.484375 62.296875 162.460938 62.097656 162.445312 61.902344 C 162.433594 61.511719 162.40625 61.117188 162.425781 60.738281 C 162.457031 59.210938 162.695312 57.765625 163.019531 56.378906 C 163.347656 54.988281 163.757812 53.652344 164.210938 52.339844 C 165.117188 49.726562 166.191406 47.21875 167.304688 44.753906 C 168.421875 42.292969 169.585938 39.871094 170.742188 37.460938 C 171.894531 35.054688 173.039062 32.65625 174.105469 30.246094 C 175.164062 27.839844 176.160156 25.414062 176.878906 22.984375 C 177.234375 21.773438 177.511719 20.5625 177.648438 19.398438 L 177.683594 18.96875 L 177.703125 18.753906 L 177.707031 18.542969 C 177.707031 18.40625 177.714844 18.265625 177.714844 18.128906 L 177.695312 17.726562 C 177.65625 17.203125 177.570312 16.71875 177.421875 16.304688 C 177.265625 15.898438 177.054688 15.566406 176.78125 15.285156 C 176.710938 15.214844 176.648438 15.136719 176.5625 15.082031 L 176.441406 14.984375 C 176.398438 14.953125 176.367188 14.917969 176.3125 14.886719 C 176.210938 14.828125 176.113281 14.765625 176.011719 14.699219 L 175.699219 14.539062 C 175.269531 14.34375 174.808594 14.207031 174.3125 14.132812 C 173.820312 14.050781 173.285156 14.054688 172.742188 14.09375 C 171.644531 14.175781 170.492188 14.484375 169.355469 14.898438 C 168.214844 15.320312 167.082031 15.859375 165.96875 16.460938 C 163.746094 17.679688 161.605469 19.152344 159.535156 20.730469 C 157.464844 22.316406 155.460938 24.015625 153.507812 25.78125 C 151.5625 27.550781 149.660156 29.382812 147.8125 31.265625 C 146.886719 32.207031 145.972656 33.164062 145.070312 34.128906 C 144.621094 34.609375 144.175781 35.097656 143.734375 35.585938 C 143.292969 36.070312 142.847656 36.570312 142.433594 37.046875 L 139.550781 34.570312 C 140.015625 34.035156 140.460938 33.539062 140.917969 33.035156 C 141.371094 32.53125 141.832031 32.03125 142.292969 31.535156 C 143.21875 30.546875 144.152344 29.570312 145.101562 28.605469 C 146.996094 26.671875 148.949219 24.789062 150.960938 22.964844 C 152.972656 21.140625 155.050781 19.378906 157.226562 17.714844 C 159.410156 16.050781 161.683594 14.480469 164.152344 13.128906 C 165.390625 12.457031 166.675781 11.839844 168.042969 11.332031 C 169.414062 10.835938 170.863281 10.429688 172.441406 10.304688 C 173.226562 10.25 174.039062 10.246094 174.867188 10.371094 C 175.695312 10.496094 176.527344 10.734375 177.3125 11.101562 C 177.507812 11.199219 177.699219 11.292969 177.890625 11.398438 L 178.441406 11.742188 C 178.53125 11.796875 178.625 11.871094 178.714844 11.941406 L 178.988281 12.15625 C 179.175781 12.292969 179.339844 12.464844 179.503906 12.632812 C 180.164062 13.308594 180.667969 14.136719 180.984375 14.980469 C 181.289062 15.828125 181.429688 16.671875 181.488281 17.476562 L 181.511719 18.078125 C 181.515625 18.277344 181.507812 18.46875 181.503906 18.664062 L 181.496094 18.957031 L 181.425781 19.8125 C 181.25 21.304688 180.917969 22.703125 180.519531 24.058594 C 179.71875 26.761719 178.671875 29.292969 177.578125 31.777344 C 176.484375 34.261719 175.324219 36.6875 174.167969 39.101562 C 173.011719 41.515625 171.855469 43.914062 170.765625 46.324219 C 169.675781 48.730469 168.644531 51.148438 167.800781 53.585938 C 167.378906 54.800781 167.003906 56.023438 166.71875 57.238281 C 166.433594 58.453125 166.246094 59.664062 166.222656 60.808594 C 166.207031 61.097656 166.234375 61.371094 166.238281 61.652344 C 166.246094 61.789062 166.265625 61.917969 166.277344 62.054688 L 166.296875 62.253906 L 166.335938 62.445312 C 166.414062 62.964844 166.570312 63.429688 166.769531 63.84375 L 166.84375 63.996094 C 166.871094 64.050781 166.894531 64.101562 166.929688 64.144531 C 166.992188 64.238281 167.050781 64.332031 167.109375 64.429688 C 167.253906 64.597656 167.378906 64.78125 167.550781 64.929688 C 167.699219 65.097656 167.90625 65.222656 168.078125 65.371094 C 168.246094 65.480469 168.421875 65.574219 168.601562 65.65625 C 168.789062 65.730469 168.984375 65.785156 169.195312 65.832031 C 169.40625 65.863281 169.628906 65.890625 169.863281 65.894531 C 170.335938 65.902344 170.851562 65.832031 171.382812 65.710938 C 172.449219 65.453125 173.5625 64.976562 174.648438 64.402344 C 176.824219 63.238281 178.914062 61.699219 180.921875 60.058594 C 182.929688 58.410156 184.863281 56.628906 186.746094 54.789062 C 188.628906 52.949219 190.460938 51.042969 192.253906 49.097656 C 194.050781 47.148438 195.808594 45.164062 197.539062 43.148438 C 199.265625 41.136719 200.96875 39.09375 202.644531 37.03125 C 204.320312 34.96875 205.972656 32.882812 207.605469 30.78125 C 209.03125 28.941406 210.445312 27.085938 211.839844 25.21875 C 209.523438 25.273438 207.875 24.316406 207.039062 23.691406 C 207.78125 22.707031 208.519531 21.71875 209.25 20.730469 C 209.75 21.101562 210.558594 21.5 211.691406 21.460938 C 212.820312 21.425781 214.292969 20.945312 216.066406 19.5625 L 219.046875 21.664062 C 218.285156 23.847656 218.257812 25.386719 218.550781 26.496094 Z M 218.550781 26.496094 " fill-opacity="1" fill-rule="nonzero"/></g></g></g><g fill="#ffffff" fill-opacity="1"><g transform="translate(28.710686, 43.498746)"><g><path d="M 10.5 0.234375 C 8.3125 0.234375 6.453125 0.0703125 4.921875 -0.25 C 3.390625 -0.570312 2.222656 -1.15625 1.421875 -2 C 0.628906 -2.851562 0.234375 -4.078125 0.234375 -5.671875 L 6.203125 -5.671875 C 6.203125 -5.410156 6.316406 -5.179688 6.546875 -4.984375 C 6.773438 -4.785156 7.210938 -4.628906 7.859375 -4.515625 C 8.515625 -4.410156 9.472656 -4.359375 10.734375 -4.359375 C 11.910156 -4.359375 12.789062 -4.382812 13.375 -4.4375 C 13.957031 -4.5 14.335938 -4.585938 14.515625 -4.703125 C 14.703125 -4.828125 14.796875 -4.988281 14.796875 -5.1875 C 14.796875 -5.425781 14.703125 -5.601562 14.515625 -5.71875 C 14.328125 -5.832031 13.925781 -5.914062 13.3125 -5.96875 C 12.695312 -6.019531 11.757812 -6.0625 10.5 -6.09375 C 8.082031 -6.164062 6.132812 -6.367188 4.65625 -6.703125 C 3.1875 -7.046875 2.117188 -7.582031 1.453125 -8.3125 C 0.785156 -9.039062 0.453125 -10.023438 0.453125 -11.265625 C 0.453125 -13.035156 1.296875 -14.316406 2.984375 -15.109375 C 4.671875 -15.910156 7.101562 -16.3125 10.28125 -16.3125 C 12.375 -16.3125 14.148438 -16.128906 15.609375 -15.765625 C 17.066406 -15.398438 18.175781 -14.804688 18.9375 -13.984375 C 19.707031 -13.160156 20.09375 -12.0625 20.09375 -10.6875 L 14.109375 -10.6875 C 14.109375 -11.113281 13.753906 -11.390625 13.046875 -11.515625 C 12.347656 -11.648438 11.269531 -11.71875 9.8125 -11.71875 C 8.875 -11.71875 8.164062 -11.695312 7.6875 -11.65625 C 7.207031 -11.625 6.878906 -11.550781 6.703125 -11.4375 C 6.523438 -11.332031 6.4375 -11.175781 6.4375 -10.96875 C 6.4375 -10.769531 6.53125 -10.625 6.71875 -10.53125 C 6.914062 -10.4375 7.300781 -10.375 7.875 -10.34375 C 8.457031 -10.3125 9.332031 -10.273438 10.5 -10.234375 C 12.09375 -10.171875 13.519531 -10.070312 14.78125 -9.9375 C 16.050781 -9.8125 17.128906 -9.585938 18.015625 -9.265625 C 18.910156 -8.941406 19.59375 -8.46875 20.0625 -7.84375 C 20.539062 -7.226562 20.78125 -6.390625 20.78125 -5.328125 C 20.78125 -3.859375 20.378906 -2.722656 19.578125 -1.921875 C 18.785156 -1.117188 17.625 -0.554688 16.09375 -0.234375 C 14.570312 0.078125 12.707031 0.234375 10.5 0.234375 Z M 10.5 0.234375 "/></g></g></g><g fill="#ffffff" fill-opacity="1"><g transform="translate(49.714399, 43.498746)"><g><path d="M 0.234375 0 L 6.890625 -16.09375 L 15.765625 -16.09375 L 22.4375 0 L 15.859375 0 L 14.75 -2.890625 L 7.90625 -2.890625 L 6.796875 0 Z M 9.46875 -7.03125 L 13.1875 -7.03125 L 11.328125 -11.953125 Z M 9.46875 -7.03125 "/></g></g></g><g fill="#ffffff" fill-opacity="1"><g transform="translate(72.372663, 43.498746)"><g><path d="M 0.234375 0 L 6.890625 -16.09375 L 15.765625 -16.09375 L 22.4375 0 L 15.859375 0 L 14.75 -2.890625 L 7.90625 -2.890625 L 6.796875 0 Z M 9.46875 -7.03125 L 13.1875 -7.03125 L 11.328125 -11.953125 Z M 9.46875 -7.03125 "/></g></g></g><g fill="#ffffff" fill-opacity="1"><g transform="translate(95.030926, 43.498746)"><g><path d="M 10.5 0.234375 C 8.3125 0.234375 6.453125 0.0703125 4.921875 -0.25 C 3.390625 -0.570312 2.222656 -1.15625 1.421875 -2 C 0.628906 -2.851562 0.234375 -4.078125 0.234375 -5.671875 L 6.203125 -5.671875 C 6.203125 -5.410156 6.316406 -5.179688 6.546875 -4.984375 C 6.773438 -4.785156 7.210938 -4.628906 7.859375 -4.515625 C 8.515625 -4.410156 9.472656 -4.359375 10.734375 -4.359375 C 11.910156 -4.359375 12.789062 -4.382812 13.375 -4.4375 C 13.957031 -4.5 14.335938 -4.585938 14.515625 -4.703125 C 14.703125 -4.828125 14.796875 -4.988281 14.796875 -5.1875 C 14.796875 -5.425781 14.703125 -5.601562 14.515625 -5.71875 C 14.328125 -5.832031 13.925781 -5.914062 13.3125 -5.96875 C 12.695312 -6.019531 11.757812 -6.0625 10.5 -6.09375 C 8.082031 -6.164062 6.132812 -6.367188 4.65625 -6.703125 C 3.1875 -7.046875 2.117188 -7.582031 1.453125 -8.3125 C 0.785156 -9.039062 0.453125 -10.023438 0.453125 -11.265625 C 0.453125 -13.035156 1.296875 -14.316406 2.984375 -15.109375 C 4.671875 -15.910156 7.101562 -16.3125 10.28125 -16.3125 C 12.375 -16.3125 14.148438 -16.128906 15.609375 -15.765625 C 17.066406 -15.398438 18.175781 -14.804688 18.9375 -13.984375 C 19.707031 -13.160156 20.09375 -12.0625 20.09375 -10.6875 L 14.109375 -10.6875 C 14.109375 -11.113281 13.753906 -11.390625 13.046875 -11.515625 C 12.347656 -11.648438 11.269531 -11.71875 9.8125 -11.71875 C 8.875 -11.71875 8.164062 -11.695312 7.6875 -11.65625 C 7.207031 -11.625 6.878906 -11.550781 6.703125 -11.4375 C 6.523438 -11.332031 6.4375 -11.175781 6.4375 -10.96875 C 6.4375 -10.769531 6.53125 -10.625 6.71875 -10.53125 C 6.914062 -10.4375 7.300781 -10.375 7.875 -10.34375 C 8.457031 -10.3125 9.332031 -10.273438 10.5 -10.234375 C 12.09375 -10.171875 13.519531 -10.070312 14.78125 -9.9375 C 16.050781 -9.8125 17.128906 -9.585938 18.015625 -9.265625 C 18.910156 -8.941406 19.59375 -8.46875 20.0625 -7.84375 C 20.539062 -7.226562 20.78125 -6.390625 20.78125 -5.328125 C 20.78125 -3.859375 20.378906 -2.722656 19.578125 -1.921875 C 18.785156 -1.117188 17.625 -0.554688 16.09375 -0.234375 C 14.570312 0.078125 12.707031 0.234375 10.5 0.234375 Z M 10.5 0.234375 "/></g></g></g><g fill="#ffffff" fill-opacity="1"><g transform="translate(116.034639, 43.498746)"><g><path d="M 0.234375 0 L 6.890625 -16.09375 L 15.765625 -16.09375 L 22.4375 0 L 15.859375 0 L 14.75 -2.890625 L 7.90625 -2.890625 L 6.796875 0 Z M 9.46875 -7.03125 L 13.1875 -7.03125 L 11.328125 -11.953125 Z M 9.46875 -7.03125 "/></g></g></g><g fill="#ffffff" fill-opacity="1"><g transform="translate(138.692903, 43.498746)"><g><path d="M 0.453125 0 L 0.453125 -16.09375 L 14.484375 -16.09375 C 15.703125 -16.09375 16.65625 -15.921875 17.34375 -15.578125 C 18.039062 -15.234375 18.535156 -14.753906 18.828125 -14.140625 C 19.117188 -13.523438 19.265625 -12.8125 19.265625 -12 C 19.265625 -11.476562 19.148438 -10.957031 18.921875 -10.4375 C 18.703125 -9.925781 18.394531 -9.441406 18 -8.984375 C 18.695312 -8.484375 19.269531 -7.867188 19.71875 -7.140625 C 20.175781 -6.421875 20.40625 -5.625 20.40625 -4.75 C 20.40625 -3.882812 20.222656 -3.085938 19.859375 -2.359375 C 19.492188 -1.640625 18.925781 -1.066406 18.15625 -0.640625 C 17.394531 -0.210938 16.398438 0 15.171875 0 Z M 6.4375 -10.4375 L 11.953125 -10.4375 C 12.253906 -10.4375 12.550781 -10.472656 12.84375 -10.546875 C 13.132812 -10.628906 13.28125 -10.882812 13.28125 -11.3125 C 13.28125 -11.75 13.132812 -12.003906 12.84375 -12.078125 C 12.550781 -12.148438 12.253906 -12.1875 11.953125 -12.1875 L 6.4375 -12.1875 Z M 6.4375 -4.359375 L 13.09375 -4.359375 C 13.40625 -4.359375 13.707031 -4.394531 14 -4.46875 C 14.289062 -4.539062 14.4375 -4.789062 14.4375 -5.21875 C 14.4375 -5.644531 14.289062 -5.890625 14 -5.953125 C 13.707031 -6.023438 13.40625 -6.0625 13.09375 -6.0625 L 6.4375 -6.0625 Z M 6.4375 -4.359375 "/></g></g></g><g fill="#ffffff" fill-opacity="1"><g transform="translate(159.32893, 43.498746)"><g><path d="M 0.453125 0 L 0.453125 -16.09375 L 6.4375 -16.09375 L 6.4375 -5.0625 L 17.015625 -5.0625 L 17.015625 0 Z M 0.453125 0 "/></g></g></g><g fill="#ffffff" fill-opacity="1"><g transform="translate(176.563919, 43.498746)"><g><path d="M 0.453125 0 L 0.453125 -16.09375 L 17.46875 -16.09375 L 17.46875 -11.484375 L 6.4375 -11.484375 L 6.4375 -10 L 17.46875 -10 L 17.46875 -6.09375 L 6.4375 -6.09375 L 6.4375 -4.59375 L 17.46875 -4.59375 L 17.46875 0 Z M 0.453125 0 "/></g></g></g><g clip-path="url(#6f38df5783)"><path fill="#1649ff" d="M 23.238281 33.851562 L 23.238281 38.980469 C 17.027344 40.796875 16.101562 44.015625 16.101562 45.777344 L 10.757812 45.777344 C 10.757812 44.308594 11.097656 41.648438 13.136719 39.085938 L 4.566406 39.085938 L 4.566406 33.746094 L 13.136719 33.746094 C 11.097656 31.183594 10.757812 28.527344 10.757812 27.058594 L 16.101562 27.058594 C 16.101562 28.816406 17.027344 32.039062 23.238281 33.851562 Z M 23.238281 33.851562 " fill-opacity="1" fill-rule="nonzero"/></g></svg>